<svg xmlns="http://www.w3.org/2000/svg" width="22.05" height="21.027" viewBox="0 0 22.05 21.027">
  <g id="Group_68" data-name="Group 68" transform="translate(-1.906 -2.794)">
    <path id="Rectangle_63" data-name="Rectangle 63" d="M2,0H20.05a2,2,0,0,1,2,2V3.876a0,0,0,0,1,0,0H0a0,0,0,0,1,0,0V2A2,2,0,0,1,2,0Z" transform="translate(1.906 4.477)" fill="#c4c4c4"/>
    <rect id="Rectangle_58" data-name="Rectangle 58" width="1.218" height="3.62" rx="0.609" transform="translate(7.276 2.794)" fill="#c4c4c4"/>
    <path id="Rectangle_60" data-name="Rectangle 60" d="M0,0H22.05a0,0,0,0,1,0,0V12.7a2,2,0,0,1-2,2H2a2,2,0,0,1-2-2V0A0,0,0,0,1,0,0Z" transform="translate(1.906 9.117)" fill="#c4c4c4"/>
    <rect id="Rectangle_62" data-name="Rectangle 62" width="1.218" height="3.62" rx="0.609" transform="translate(17.987 2.794)" fill="#c4c4c4"/>
  </g>
</svg>
