<svg xmlns="http://www.w3.org/2000/svg" xmlns:xlink="http://www.w3.org/1999/xlink" width="25" height="22" viewBox="0 0 25 22">
  <defs>
    <clipPath id="clip-path">
      <rect id="Rectangle_55" data-name="Rectangle 55" width="25" height="22" transform="translate(0.301 0.24)" fill="#c4c4c4"/>
    </clipPath>
  </defs>
  <g id="Group_60" data-name="Group 60" transform="translate(-0.814 -0.371)">
    <g id="Group_59" data-name="Group 59" transform="translate(0.513 0.131)" clip-path="url(#clip-path)">
      <path id="Path_75" data-name="Path 75" d="M11.188,0h3.163c.141.023.284.043.424.071A3.785,3.785,0,0,1,16.89,1.183a2.322,2.322,0,0,1,.664,1.549c.015.5,0,.993.009,1.49,0,.215,0,.216.221.216h5.476a3.984,3.984,0,0,1,.522.022,2.043,2.043,0,0,1,1.558.978,2.308,2.308,0,0,1,.278.783V9.646c-.631.361-1.267.714-1.916,1.042a29.054,29.054,0,0,1-5.96,2.3q-.969.245-1.956.4c-.216.035-.216.034-.216-.187s0-.418,0-.627a1.1,1.1,0,0,0-1.048-1.136q-1.712-.015-3.424,0a1.082,1.082,0,0,0-1.027.929,7.474,7.474,0,0,0-.021.861c0,.189,0,.192-.192.162-.224-.035-.447-.073-.669-.114A26.282,26.282,0,0,1,4.53,11.919,33.823,33.823,0,0,1,.917,10.277c-.308-.163-.6-.349-.917-.5V6.248a2.11,2.11,0,0,1,.44-.963,2.385,2.385,0,0,1,1.9-.845c1.846-.005,3.692,0,5.537,0,.182,0,.185,0,.185-.181,0-.5,0-.993,0-1.489a2.226,2.226,0,0,1,.3-1.134A3.132,3.132,0,0,1,9.952.308,4.736,4.736,0,0,1,11.188,0m1.622,4.436h3.161c.171,0,.176-.005.176-.177,0-.492,0-.984,0-1.476a1.08,1.08,0,0,0-.315-.778,1.712,1.712,0,0,0-.636-.4,3.031,3.031,0,0,0-1.072-.2c-1,0-1.994-.044-2.989.023A2.243,2.243,0,0,0,10,1.782a1.139,1.139,0,0,0-.531.992q0,.738,0,1.476c0,.186,0,.187.192.187h3.148" transform="translate(-0.072 0.104)" fill="#c4c4c4"/>
      <path id="Path_76" data-name="Path 76" d="M64.269,459.263H42.7a1.1,1.1,0,0,1-.475-.263,1.392,1.392,0,0,1-.417-1.038q0-4.45,0-8.9c0-.185.011-.191.184-.129q1.12.4,2.209.877a29.622,29.622,0,0,0,3.213,1.21,20.991,20.991,0,0,0,3.219.725c.105.015.143.059.142.159,0,.157,0,.314.006.47a1.076,1.076,0,0,0,1.07,1.024q1.679.006,3.359,0a1.089,1.089,0,0,0,1.055-.914,3.193,3.193,0,0,0,.018-.56c0-.11.027-.16.148-.178a20.557,20.557,0,0,0,3.43-.8,34.823,34.823,0,0,0,5.153-2.156c.225-.115.226-.113.226.14,0,2.967-.007,5.933.005,8.9a1.421,1.421,0,0,1-.977,1.429" transform="translate(-40.788 -436.887)" fill="#c4c4c4"/>
      <path id="Path_77" data-name="Path 77" d="M437.271,481.427c-.418,0-.836,0-1.254,0-.118,0-.163-.038-.163-.157q0-1.253,0-2.507c0-.109.036-.155.152-.155q1.26.005,2.52,0c.113,0,.156.039.155.151q0,1.26,0,2.52c0,.114-.047.149-.158.148-.418-.005-.836,0-1.253,0" transform="translate(-424.533 -465.996)" fill="#c4c4c4"/>
    </g>
  </g>
</svg>
