<svg xmlns="http://www.w3.org/2000/svg" xmlns:xlink="http://www.w3.org/1999/xlink" width="63.621" height="59.41" viewBox="0 0 63.621 59.41">
  <defs>
    <filter id="Rectangle_10" x="26.108" y="0" width="16.463" height="59.41" filterUnits="userSpaceOnUse">
      <feOffset dy="3" input="SourceAlpha"/>
      <feGaussianBlur stdDeviation="5" result="blur"/>
      <feFlood flood-opacity="0.161" result="color"/>
      <feComposite operator="out" in="SourceGraphic" in2="blur"/>
      <feComposite operator="in" in="color"/>
      <feComposite operator="in" in2="SourceGraphic"/>
    </filter>
    <filter id="Path_4">
      <feOffset dy="3" input="SourceAlpha"/>
      <feGaussianBlur stdDeviation="3" result="blur-2"/>
      <feFlood flood-opacity="0.161" result="color-2"/>
      <feComposite operator="out" in="SourceGraphic" in2="blur-2"/>
      <feComposite operator="in" in="color-2"/>
      <feComposite operator="in" in2="SourceGraphic"/>
    </filter>
    <filter id="Path_3">
      <feOffset dy="3" input="SourceAlpha"/>
      <feGaussianBlur stdDeviation="3" result="blur-3"/>
      <feFlood flood-opacity="0.161" result="color-3"/>
      <feComposite operator="out" in="SourceGraphic" in2="blur-3"/>
      <feComposite operator="in" in="color-3"/>
      <feComposite operator="in" in2="SourceGraphic"/>
    </filter>
  </defs>
  <g id="Group_4" data-name="Group 4" transform="translate(-62.004 -110.185)">
    <g data-type="innerShadowGroup">
      <path id="Rectangle_10-2" data-name="Rectangle 10" d="M16.417,0h0a.046.046,0,0,1,.046.046V42.992A16.417,16.417,0,0,1,.046,59.41h0A.046.046,0,0,1,0,59.364V16.417A16.417,16.417,0,0,1,16.417,0Z" transform="translate(88.112 110.185)" fill="#fff"/>
      <g transform="matrix(1, 0, 0, 1, 62, 110.18)" filter="url(#Rectangle_10)">
        <path id="Rectangle_10-3" data-name="Rectangle 10" d="M16.417,0h0a.046.046,0,0,1,.046.046V42.992A16.417,16.417,0,0,1,.046,59.41h0A.046.046,0,0,1,0,59.364V16.417A16.417,16.417,0,0,1,16.417,0Z" transform="translate(26.11)" fill="#fff"/>
      </g>
    </g>
    <g data-type="innerShadowGroup">
      <path id="Path_4-2" data-name="Path 4" d="M11.005,0A11.005,11.005,0,1,1,0,11.005,11.005,11.005,0,0,1,11.005,0Z" transform="translate(62.004 147.584)" fill="#fff"/>
      <g transform="matrix(1, 0, 0, 1, 62, 110.18)" filter="url(#Path_4)">
        <path id="Path_4-3" data-name="Path 4" d="M11.005,0A11.005,11.005,0,1,1,0,11.005,11.005,11.005,0,0,1,11.005,0Z" transform="translate(0 37.4)" fill="#fff"/>
      </g>
    </g>
    <g data-type="innerShadowGroup">
      <path id="Path_3-2" data-name="Path 3" d="M698.231,620.3H677.559a.392.392,0,0,1-.277-.669l10.336-10.336,10.336-10.336a.392.392,0,0,1,.669.277v20.672A.392.392,0,0,1,698.231,620.3Z" transform="translate(-572.998 -450.703)" fill="#fff"/>
      <g transform="matrix(1, 0, 0, 1, 62, 110.18)" filter="url(#Path_3)">
        <path id="Path_3-3" data-name="Path 3" d="M698.231,620.3H677.559a.392.392,0,0,1-.277-.669l10.336-10.336,10.336-10.336a.392.392,0,0,1,.669.277v20.672A.392.392,0,0,1,698.231,620.3Z" transform="translate(-635 -560.89)" fill="#fff"/>
      </g>
    </g>
  </g>
</svg>
