<svg xmlns="http://www.w3.org/2000/svg" xmlns:xlink="http://www.w3.org/1999/xlink" width="198" height="192" viewBox="0 0 198 192">
  <defs>
    <clipPath id="clip-path">
      <rect width="198" height="192" fill="none"/>
    </clipPath>
  </defs>
  <g id="Repeat_Grid_2" data-name="Repeat Grid 2" clip-path="url(#clip-path)">
    <g transform="translate(-806 -572)">
      <circle id="Ellipse_1" data-name="Ellipse 1" cx="1.5" cy="1.5" r="1.5" transform="translate(806 572)" fill="#6f9eb7"/>
    </g>
    <g transform="translate(-788 -572)">
      <circle id="Ellipse_1-2" data-name="Ellipse 1" cx="1.5" cy="1.5" r="1.5" transform="translate(806 572)" fill="#6f9eb7"/>
    </g>
    <g transform="translate(-770 -572)">
      <circle id="Ellipse_1-3" data-name="Ellipse 1" cx="1.5" cy="1.5" r="1.5" transform="translate(806 572)" fill="#6f9eb7"/>
    </g>
    <g transform="translate(-752 -572)">
      <circle id="Ellipse_1-4" data-name="Ellipse 1" cx="1.5" cy="1.5" r="1.5" transform="translate(806 572)" fill="#6f9eb7"/>
    </g>
    <g transform="translate(-734 -572)">
      <circle id="Ellipse_1-5" data-name="Ellipse 1" cx="1.5" cy="1.5" r="1.5" transform="translate(806 572)" fill="#6f9eb7"/>
    </g>
    <g transform="translate(-716 -572)">
      <circle id="Ellipse_1-6" data-name="Ellipse 1" cx="1.5" cy="1.5" r="1.5" transform="translate(806 572)" fill="#6f9eb7"/>
    </g>
    <g transform="translate(-698 -572)">
      <circle id="Ellipse_1-7" data-name="Ellipse 1" cx="1.5" cy="1.5" r="1.5" transform="translate(806 572)" fill="#6f9eb7"/>
    </g>
    <g transform="translate(-680 -572)">
      <circle id="Ellipse_1-8" data-name="Ellipse 1" cx="1.5" cy="1.5" r="1.5" transform="translate(806 572)" fill="#6f9eb7"/>
    </g>
    <g transform="translate(-662 -572)">
      <circle id="Ellipse_1-9" data-name="Ellipse 1" cx="1.5" cy="1.5" r="1.5" transform="translate(806 572)" fill="#6f9eb7"/>
    </g>
    <g transform="translate(-644 -572)">
      <circle id="Ellipse_1-10" data-name="Ellipse 1" cx="1.5" cy="1.5" r="1.5" transform="translate(806 572)" fill="#6f9eb7"/>
    </g>
    <g transform="translate(-626 -572)">
      <circle id="Ellipse_1-11" data-name="Ellipse 1" cx="1.5" cy="1.5" r="1.5" transform="translate(806 572)" fill="#6f9eb7"/>
    </g>
    <g transform="translate(-806 -555)">
      <circle id="Ellipse_1-12" data-name="Ellipse 1" cx="1.5" cy="1.5" r="1.5" transform="translate(806 572)" fill="#6f9eb7"/>
    </g>
    <g transform="translate(-788 -555)">
      <circle id="Ellipse_1-13" data-name="Ellipse 1" cx="1.5" cy="1.5" r="1.5" transform="translate(806 572)" fill="#6f9eb7"/>
    </g>
    <g transform="translate(-770 -555)">
      <circle id="Ellipse_1-14" data-name="Ellipse 1" cx="1.5" cy="1.5" r="1.5" transform="translate(806 572)" fill="#6f9eb7"/>
    </g>
    <g transform="translate(-752 -555)">
      <circle id="Ellipse_1-15" data-name="Ellipse 1" cx="1.5" cy="1.5" r="1.5" transform="translate(806 572)" fill="#6f9eb7"/>
    </g>
    <g transform="translate(-734 -555)">
      <circle id="Ellipse_1-16" data-name="Ellipse 1" cx="1.5" cy="1.5" r="1.5" transform="translate(806 572)" fill="#6f9eb7"/>
    </g>
    <g transform="translate(-716 -555)">
      <circle id="Ellipse_1-17" data-name="Ellipse 1" cx="1.5" cy="1.5" r="1.5" transform="translate(806 572)" fill="#6f9eb7"/>
    </g>
    <g transform="translate(-698 -555)">
      <circle id="Ellipse_1-18" data-name="Ellipse 1" cx="1.5" cy="1.5" r="1.5" transform="translate(806 572)" fill="#6f9eb7"/>
    </g>
    <g transform="translate(-680 -555)">
      <circle id="Ellipse_1-19" data-name="Ellipse 1" cx="1.5" cy="1.5" r="1.5" transform="translate(806 572)" fill="#6f9eb7"/>
    </g>
    <g transform="translate(-662 -555)">
      <circle id="Ellipse_1-20" data-name="Ellipse 1" cx="1.5" cy="1.5" r="1.5" transform="translate(806 572)" fill="#6f9eb7"/>
    </g>
    <g transform="translate(-644 -555)">
      <circle id="Ellipse_1-21" data-name="Ellipse 1" cx="1.5" cy="1.5" r="1.5" transform="translate(806 572)" fill="#6f9eb7"/>
    </g>
    <g transform="translate(-626 -555)">
      <circle id="Ellipse_1-22" data-name="Ellipse 1" cx="1.5" cy="1.5" r="1.5" transform="translate(806 572)" fill="#6f9eb7"/>
    </g>
    <g transform="translate(-806 -538)">
      <circle id="Ellipse_1-23" data-name="Ellipse 1" cx="1.5" cy="1.5" r="1.5" transform="translate(806 572)" fill="#6f9eb7"/>
    </g>
    <g transform="translate(-788 -538)">
      <circle id="Ellipse_1-24" data-name="Ellipse 1" cx="1.5" cy="1.5" r="1.5" transform="translate(806 572)" fill="#6f9eb7"/>
    </g>
    <g transform="translate(-770 -538)">
      <circle id="Ellipse_1-25" data-name="Ellipse 1" cx="1.5" cy="1.5" r="1.5" transform="translate(806 572)" fill="#6f9eb7"/>
    </g>
    <g transform="translate(-752 -538)">
      <circle id="Ellipse_1-26" data-name="Ellipse 1" cx="1.5" cy="1.5" r="1.5" transform="translate(806 572)" fill="#6f9eb7"/>
    </g>
    <g transform="translate(-734 -538)">
      <circle id="Ellipse_1-27" data-name="Ellipse 1" cx="1.5" cy="1.5" r="1.5" transform="translate(806 572)" fill="#6f9eb7"/>
    </g>
    <g transform="translate(-716 -538)">
      <circle id="Ellipse_1-28" data-name="Ellipse 1" cx="1.5" cy="1.5" r="1.5" transform="translate(806 572)" fill="#6f9eb7"/>
    </g>
    <g transform="translate(-698 -538)">
      <circle id="Ellipse_1-29" data-name="Ellipse 1" cx="1.5" cy="1.5" r="1.5" transform="translate(806 572)" fill="#6f9eb7"/>
    </g>
    <g transform="translate(-680 -538)">
      <circle id="Ellipse_1-30" data-name="Ellipse 1" cx="1.5" cy="1.5" r="1.5" transform="translate(806 572)" fill="#6f9eb7"/>
    </g>
    <g transform="translate(-662 -538)">
      <circle id="Ellipse_1-31" data-name="Ellipse 1" cx="1.5" cy="1.5" r="1.5" transform="translate(806 572)" fill="#6f9eb7"/>
    </g>
    <g transform="translate(-644 -538)">
      <circle id="Ellipse_1-32" data-name="Ellipse 1" cx="1.5" cy="1.5" r="1.5" transform="translate(806 572)" fill="#6f9eb7"/>
    </g>
    <g transform="translate(-626 -538)">
      <circle id="Ellipse_1-33" data-name="Ellipse 1" cx="1.5" cy="1.5" r="1.5" transform="translate(806 572)" fill="#6f9eb7"/>
    </g>
    <g transform="translate(-806 -521)">
      <circle id="Ellipse_1-34" data-name="Ellipse 1" cx="1.5" cy="1.5" r="1.5" transform="translate(806 572)" fill="#6f9eb7"/>
    </g>
    <g transform="translate(-788 -521)">
      <circle id="Ellipse_1-35" data-name="Ellipse 1" cx="1.5" cy="1.5" r="1.5" transform="translate(806 572)" fill="#6f9eb7"/>
    </g>
    <g transform="translate(-770 -521)">
      <circle id="Ellipse_1-36" data-name="Ellipse 1" cx="1.5" cy="1.5" r="1.5" transform="translate(806 572)" fill="#6f9eb7"/>
    </g>
    <g transform="translate(-752 -521)">
      <circle id="Ellipse_1-37" data-name="Ellipse 1" cx="1.5" cy="1.5" r="1.5" transform="translate(806 572)" fill="#6f9eb7"/>
    </g>
    <g transform="translate(-734 -521)">
      <circle id="Ellipse_1-38" data-name="Ellipse 1" cx="1.5" cy="1.5" r="1.5" transform="translate(806 572)" fill="#6f9eb7"/>
    </g>
    <g transform="translate(-716 -521)">
      <circle id="Ellipse_1-39" data-name="Ellipse 1" cx="1.5" cy="1.5" r="1.5" transform="translate(806 572)" fill="#6f9eb7"/>
    </g>
    <g transform="translate(-698 -521)">
      <circle id="Ellipse_1-40" data-name="Ellipse 1" cx="1.5" cy="1.5" r="1.5" transform="translate(806 572)" fill="#6f9eb7"/>
    </g>
    <g transform="translate(-680 -521)">
      <circle id="Ellipse_1-41" data-name="Ellipse 1" cx="1.5" cy="1.5" r="1.5" transform="translate(806 572)" fill="#6f9eb7"/>
    </g>
    <g transform="translate(-662 -521)">
      <circle id="Ellipse_1-42" data-name="Ellipse 1" cx="1.5" cy="1.5" r="1.5" transform="translate(806 572)" fill="#6f9eb7"/>
    </g>
    <g transform="translate(-644 -521)">
      <circle id="Ellipse_1-43" data-name="Ellipse 1" cx="1.5" cy="1.5" r="1.5" transform="translate(806 572)" fill="#6f9eb7"/>
    </g>
    <g transform="translate(-626 -521)">
      <circle id="Ellipse_1-44" data-name="Ellipse 1" cx="1.5" cy="1.5" r="1.5" transform="translate(806 572)" fill="#6f9eb7"/>
    </g>
    <g transform="translate(-806 -504)">
      <circle id="Ellipse_1-45" data-name="Ellipse 1" cx="1.5" cy="1.5" r="1.5" transform="translate(806 572)" fill="#6f9eb7"/>
    </g>
    <g transform="translate(-788 -504)">
      <circle id="Ellipse_1-46" data-name="Ellipse 1" cx="1.5" cy="1.5" r="1.5" transform="translate(806 572)" fill="#6f9eb7"/>
    </g>
    <g transform="translate(-770 -504)">
      <circle id="Ellipse_1-47" data-name="Ellipse 1" cx="1.5" cy="1.5" r="1.5" transform="translate(806 572)" fill="#6f9eb7"/>
    </g>
    <g transform="translate(-752 -504)">
      <circle id="Ellipse_1-48" data-name="Ellipse 1" cx="1.5" cy="1.5" r="1.5" transform="translate(806 572)" fill="#6f9eb7"/>
    </g>
    <g transform="translate(-734 -504)">
      <circle id="Ellipse_1-49" data-name="Ellipse 1" cx="1.5" cy="1.5" r="1.5" transform="translate(806 572)" fill="#6f9eb7"/>
    </g>
    <g transform="translate(-716 -504)">
      <circle id="Ellipse_1-50" data-name="Ellipse 1" cx="1.5" cy="1.5" r="1.5" transform="translate(806 572)" fill="#6f9eb7"/>
    </g>
    <g transform="translate(-698 -504)">
      <circle id="Ellipse_1-51" data-name="Ellipse 1" cx="1.5" cy="1.5" r="1.5" transform="translate(806 572)" fill="#6f9eb7"/>
    </g>
    <g transform="translate(-680 -504)">
      <circle id="Ellipse_1-52" data-name="Ellipse 1" cx="1.5" cy="1.5" r="1.5" transform="translate(806 572)" fill="#6f9eb7"/>
    </g>
    <g transform="translate(-662 -504)">
      <circle id="Ellipse_1-53" data-name="Ellipse 1" cx="1.5" cy="1.5" r="1.5" transform="translate(806 572)" fill="#6f9eb7"/>
    </g>
    <g transform="translate(-644 -504)">
      <circle id="Ellipse_1-54" data-name="Ellipse 1" cx="1.5" cy="1.5" r="1.5" transform="translate(806 572)" fill="#6f9eb7"/>
    </g>
    <g transform="translate(-626 -504)">
      <circle id="Ellipse_1-55" data-name="Ellipse 1" cx="1.5" cy="1.5" r="1.5" transform="translate(806 572)" fill="#6f9eb7"/>
    </g>
    <g transform="translate(-806 -487)">
      <circle id="Ellipse_1-56" data-name="Ellipse 1" cx="1.5" cy="1.5" r="1.5" transform="translate(806 572)" fill="#6f9eb7"/>
    </g>
    <g transform="translate(-788 -487)">
      <circle id="Ellipse_1-57" data-name="Ellipse 1" cx="1.5" cy="1.5" r="1.5" transform="translate(806 572)" fill="#6f9eb7"/>
    </g>
    <g transform="translate(-770 -487)">
      <circle id="Ellipse_1-58" data-name="Ellipse 1" cx="1.5" cy="1.5" r="1.5" transform="translate(806 572)" fill="#6f9eb7"/>
    </g>
    <g transform="translate(-752 -487)">
      <circle id="Ellipse_1-59" data-name="Ellipse 1" cx="1.5" cy="1.5" r="1.5" transform="translate(806 572)" fill="#6f9eb7"/>
    </g>
    <g transform="translate(-734 -487)">
      <circle id="Ellipse_1-60" data-name="Ellipse 1" cx="1.5" cy="1.5" r="1.5" transform="translate(806 572)" fill="#6f9eb7"/>
    </g>
    <g transform="translate(-716 -487)">
      <circle id="Ellipse_1-61" data-name="Ellipse 1" cx="1.5" cy="1.5" r="1.5" transform="translate(806 572)" fill="#6f9eb7"/>
    </g>
    <g transform="translate(-698 -487)">
      <circle id="Ellipse_1-62" data-name="Ellipse 1" cx="1.5" cy="1.5" r="1.5" transform="translate(806 572)" fill="#6f9eb7"/>
    </g>
    <g transform="translate(-680 -487)">
      <circle id="Ellipse_1-63" data-name="Ellipse 1" cx="1.5" cy="1.5" r="1.5" transform="translate(806 572)" fill="#6f9eb7"/>
    </g>
    <g transform="translate(-662 -487)">
      <circle id="Ellipse_1-64" data-name="Ellipse 1" cx="1.5" cy="1.5" r="1.5" transform="translate(806 572)" fill="#6f9eb7"/>
    </g>
    <g transform="translate(-644 -487)">
      <circle id="Ellipse_1-65" data-name="Ellipse 1" cx="1.5" cy="1.5" r="1.5" transform="translate(806 572)" fill="#6f9eb7"/>
    </g>
    <g transform="translate(-626 -487)">
      <circle id="Ellipse_1-66" data-name="Ellipse 1" cx="1.5" cy="1.5" r="1.5" transform="translate(806 572)" fill="#6f9eb7"/>
    </g>
    <g transform="translate(-806 -470)">
      <circle id="Ellipse_1-67" data-name="Ellipse 1" cx="1.5" cy="1.5" r="1.5" transform="translate(806 572)" fill="#6f9eb7"/>
    </g>
    <g transform="translate(-788 -470)">
      <circle id="Ellipse_1-68" data-name="Ellipse 1" cx="1.5" cy="1.5" r="1.5" transform="translate(806 572)" fill="#6f9eb7"/>
    </g>
    <g transform="translate(-770 -470)">
      <circle id="Ellipse_1-69" data-name="Ellipse 1" cx="1.5" cy="1.5" r="1.5" transform="translate(806 572)" fill="#6f9eb7"/>
    </g>
    <g transform="translate(-752 -470)">
      <circle id="Ellipse_1-70" data-name="Ellipse 1" cx="1.5" cy="1.5" r="1.5" transform="translate(806 572)" fill="#6f9eb7"/>
    </g>
    <g transform="translate(-734 -470)">
      <circle id="Ellipse_1-71" data-name="Ellipse 1" cx="1.5" cy="1.5" r="1.5" transform="translate(806 572)" fill="#6f9eb7"/>
    </g>
    <g transform="translate(-716 -470)">
      <circle id="Ellipse_1-72" data-name="Ellipse 1" cx="1.5" cy="1.5" r="1.5" transform="translate(806 572)" fill="#6f9eb7"/>
    </g>
    <g transform="translate(-698 -470)">
      <circle id="Ellipse_1-73" data-name="Ellipse 1" cx="1.5" cy="1.5" r="1.5" transform="translate(806 572)" fill="#6f9eb7"/>
    </g>
    <g transform="translate(-680 -470)">
      <circle id="Ellipse_1-74" data-name="Ellipse 1" cx="1.5" cy="1.5" r="1.5" transform="translate(806 572)" fill="#6f9eb7"/>
    </g>
    <g transform="translate(-662 -470)">
      <circle id="Ellipse_1-75" data-name="Ellipse 1" cx="1.5" cy="1.5" r="1.5" transform="translate(806 572)" fill="#6f9eb7"/>
    </g>
    <g transform="translate(-644 -470)">
      <circle id="Ellipse_1-76" data-name="Ellipse 1" cx="1.5" cy="1.5" r="1.5" transform="translate(806 572)" fill="#6f9eb7"/>
    </g>
    <g transform="translate(-626 -470)">
      <circle id="Ellipse_1-77" data-name="Ellipse 1" cx="1.5" cy="1.5" r="1.5" transform="translate(806 572)" fill="#6f9eb7"/>
    </g>
    <g transform="translate(-806 -453)">
      <circle id="Ellipse_1-78" data-name="Ellipse 1" cx="1.5" cy="1.5" r="1.5" transform="translate(806 572)" fill="#6f9eb7"/>
    </g>
    <g transform="translate(-788 -453)">
      <circle id="Ellipse_1-79" data-name="Ellipse 1" cx="1.5" cy="1.5" r="1.5" transform="translate(806 572)" fill="#6f9eb7"/>
    </g>
    <g transform="translate(-770 -453)">
      <circle id="Ellipse_1-80" data-name="Ellipse 1" cx="1.5" cy="1.5" r="1.5" transform="translate(806 572)" fill="#6f9eb7"/>
    </g>
    <g transform="translate(-752 -453)">
      <circle id="Ellipse_1-81" data-name="Ellipse 1" cx="1.5" cy="1.5" r="1.5" transform="translate(806 572)" fill="#6f9eb7"/>
    </g>
    <g transform="translate(-734 -453)">
      <circle id="Ellipse_1-82" data-name="Ellipse 1" cx="1.5" cy="1.5" r="1.5" transform="translate(806 572)" fill="#6f9eb7"/>
    </g>
    <g transform="translate(-716 -453)">
      <circle id="Ellipse_1-83" data-name="Ellipse 1" cx="1.5" cy="1.5" r="1.5" transform="translate(806 572)" fill="#6f9eb7"/>
    </g>
    <g transform="translate(-698 -453)">
      <circle id="Ellipse_1-84" data-name="Ellipse 1" cx="1.5" cy="1.5" r="1.5" transform="translate(806 572)" fill="#6f9eb7"/>
    </g>
    <g transform="translate(-680 -453)">
      <circle id="Ellipse_1-85" data-name="Ellipse 1" cx="1.5" cy="1.5" r="1.5" transform="translate(806 572)" fill="#6f9eb7"/>
    </g>
    <g transform="translate(-662 -453)">
      <circle id="Ellipse_1-86" data-name="Ellipse 1" cx="1.5" cy="1.5" r="1.5" transform="translate(806 572)" fill="#6f9eb7"/>
    </g>
    <g transform="translate(-644 -453)">
      <circle id="Ellipse_1-87" data-name="Ellipse 1" cx="1.5" cy="1.5" r="1.5" transform="translate(806 572)" fill="#6f9eb7"/>
    </g>
    <g transform="translate(-626 -453)">
      <circle id="Ellipse_1-88" data-name="Ellipse 1" cx="1.5" cy="1.5" r="1.5" transform="translate(806 572)" fill="#6f9eb7"/>
    </g>
    <g transform="translate(-806 -436)">
      <circle id="Ellipse_1-89" data-name="Ellipse 1" cx="1.5" cy="1.5" r="1.5" transform="translate(806 572)" fill="#6f9eb7"/>
    </g>
    <g transform="translate(-788 -436)">
      <circle id="Ellipse_1-90" data-name="Ellipse 1" cx="1.5" cy="1.5" r="1.5" transform="translate(806 572)" fill="#6f9eb7"/>
    </g>
    <g transform="translate(-770 -436)">
      <circle id="Ellipse_1-91" data-name="Ellipse 1" cx="1.5" cy="1.5" r="1.5" transform="translate(806 572)" fill="#6f9eb7"/>
    </g>
    <g transform="translate(-752 -436)">
      <circle id="Ellipse_1-92" data-name="Ellipse 1" cx="1.5" cy="1.5" r="1.5" transform="translate(806 572)" fill="#6f9eb7"/>
    </g>
    <g transform="translate(-734 -436)">
      <circle id="Ellipse_1-93" data-name="Ellipse 1" cx="1.5" cy="1.5" r="1.5" transform="translate(806 572)" fill="#6f9eb7"/>
    </g>
    <g transform="translate(-716 -436)">
      <circle id="Ellipse_1-94" data-name="Ellipse 1" cx="1.5" cy="1.5" r="1.5" transform="translate(806 572)" fill="#6f9eb7"/>
    </g>
    <g transform="translate(-698 -436)">
      <circle id="Ellipse_1-95" data-name="Ellipse 1" cx="1.5" cy="1.5" r="1.5" transform="translate(806 572)" fill="#6f9eb7"/>
    </g>
    <g transform="translate(-680 -436)">
      <circle id="Ellipse_1-96" data-name="Ellipse 1" cx="1.5" cy="1.5" r="1.5" transform="translate(806 572)" fill="#6f9eb7"/>
    </g>
    <g transform="translate(-662 -436)">
      <circle id="Ellipse_1-97" data-name="Ellipse 1" cx="1.5" cy="1.5" r="1.5" transform="translate(806 572)" fill="#6f9eb7"/>
    </g>
    <g transform="translate(-644 -436)">
      <circle id="Ellipse_1-98" data-name="Ellipse 1" cx="1.5" cy="1.5" r="1.5" transform="translate(806 572)" fill="#6f9eb7"/>
    </g>
    <g transform="translate(-626 -436)">
      <circle id="Ellipse_1-99" data-name="Ellipse 1" cx="1.5" cy="1.5" r="1.5" transform="translate(806 572)" fill="#6f9eb7"/>
    </g>
    <g transform="translate(-806 -419)">
      <circle id="Ellipse_1-100" data-name="Ellipse 1" cx="1.5" cy="1.5" r="1.5" transform="translate(806 572)" fill="#6f9eb7"/>
    </g>
    <g transform="translate(-788 -419)">
      <circle id="Ellipse_1-101" data-name="Ellipse 1" cx="1.5" cy="1.5" r="1.5" transform="translate(806 572)" fill="#6f9eb7"/>
    </g>
    <g transform="translate(-770 -419)">
      <circle id="Ellipse_1-102" data-name="Ellipse 1" cx="1.5" cy="1.5" r="1.5" transform="translate(806 572)" fill="#6f9eb7"/>
    </g>
    <g transform="translate(-752 -419)">
      <circle id="Ellipse_1-103" data-name="Ellipse 1" cx="1.5" cy="1.5" r="1.5" transform="translate(806 572)" fill="#6f9eb7"/>
    </g>
    <g transform="translate(-734 -419)">
      <circle id="Ellipse_1-104" data-name="Ellipse 1" cx="1.5" cy="1.5" r="1.5" transform="translate(806 572)" fill="#6f9eb7"/>
    </g>
    <g transform="translate(-716 -419)">
      <circle id="Ellipse_1-105" data-name="Ellipse 1" cx="1.5" cy="1.5" r="1.5" transform="translate(806 572)" fill="#6f9eb7"/>
    </g>
    <g transform="translate(-698 -419)">
      <circle id="Ellipse_1-106" data-name="Ellipse 1" cx="1.5" cy="1.5" r="1.5" transform="translate(806 572)" fill="#6f9eb7"/>
    </g>
    <g transform="translate(-680 -419)">
      <circle id="Ellipse_1-107" data-name="Ellipse 1" cx="1.5" cy="1.5" r="1.5" transform="translate(806 572)" fill="#6f9eb7"/>
    </g>
    <g transform="translate(-662 -419)">
      <circle id="Ellipse_1-108" data-name="Ellipse 1" cx="1.5" cy="1.5" r="1.5" transform="translate(806 572)" fill="#6f9eb7"/>
    </g>
    <g transform="translate(-644 -419)">
      <circle id="Ellipse_1-109" data-name="Ellipse 1" cx="1.5" cy="1.5" r="1.5" transform="translate(806 572)" fill="#6f9eb7"/>
    </g>
    <g transform="translate(-626 -419)">
      <circle id="Ellipse_1-110" data-name="Ellipse 1" cx="1.5" cy="1.5" r="1.5" transform="translate(806 572)" fill="#6f9eb7"/>
    </g>
    <g transform="translate(-806 -402)">
      <circle id="Ellipse_1-111" data-name="Ellipse 1" cx="1.5" cy="1.5" r="1.5" transform="translate(806 572)" fill="#6f9eb7"/>
    </g>
    <g transform="translate(-788 -402)">
      <circle id="Ellipse_1-112" data-name="Ellipse 1" cx="1.5" cy="1.5" r="1.5" transform="translate(806 572)" fill="#6f9eb7"/>
    </g>
    <g transform="translate(-770 -402)">
      <circle id="Ellipse_1-113" data-name="Ellipse 1" cx="1.5" cy="1.5" r="1.5" transform="translate(806 572)" fill="#6f9eb7"/>
    </g>
    <g transform="translate(-752 -402)">
      <circle id="Ellipse_1-114" data-name="Ellipse 1" cx="1.5" cy="1.5" r="1.5" transform="translate(806 572)" fill="#6f9eb7"/>
    </g>
    <g transform="translate(-734 -402)">
      <circle id="Ellipse_1-115" data-name="Ellipse 1" cx="1.5" cy="1.5" r="1.5" transform="translate(806 572)" fill="#6f9eb7"/>
    </g>
    <g transform="translate(-716 -402)">
      <circle id="Ellipse_1-116" data-name="Ellipse 1" cx="1.5" cy="1.5" r="1.5" transform="translate(806 572)" fill="#6f9eb7"/>
    </g>
    <g transform="translate(-698 -402)">
      <circle id="Ellipse_1-117" data-name="Ellipse 1" cx="1.5" cy="1.5" r="1.5" transform="translate(806 572)" fill="#6f9eb7"/>
    </g>
    <g transform="translate(-680 -402)">
      <circle id="Ellipse_1-118" data-name="Ellipse 1" cx="1.5" cy="1.5" r="1.5" transform="translate(806 572)" fill="#6f9eb7"/>
    </g>
    <g transform="translate(-662 -402)">
      <circle id="Ellipse_1-119" data-name="Ellipse 1" cx="1.5" cy="1.5" r="1.5" transform="translate(806 572)" fill="#6f9eb7"/>
    </g>
    <g transform="translate(-644 -402)">
      <circle id="Ellipse_1-120" data-name="Ellipse 1" cx="1.5" cy="1.5" r="1.5" transform="translate(806 572)" fill="#6f9eb7"/>
    </g>
    <g transform="translate(-626 -402)">
      <circle id="Ellipse_1-121" data-name="Ellipse 1" cx="1.5" cy="1.5" r="1.5" transform="translate(806 572)" fill="#6f9eb7"/>
    </g>
  </g>
</svg>
